<?xml version="1.0" standalone="no"?>
<!DOCTYPE svg PUBLIC "-//W3C//DTD SVG 1.1//EN" "http://www.w3.org/Graphics/SVG/1.1/DTD/svg11.dtd" >
<!--
2013-9-30: Created.
-->
<svg>
<metadata>
Created by iconfont
</metadata>
<defs>

<font id="iconfont-ali" horiz-adv-x="1024" >
  <font-face
    font-family="iconfont-ali"
    font-weight="500"
    font-stretch="normal"
    units-per-em="1024"
    ascent="896"
    descent="-128"
  />
    <missing-glyph />
    
    <glyph glyph-name="anquanfanghu" unicode="&#59080;" d="M976.603015 126.154467l-16.624632 0c0 34.874275 0 58.310034 0 112.370277 0 81.246419-93.994768 304.423361-203.489554 336.921519-5.124717 1.500167-9.750061 3.374864-14.124695 5.374404l-30.248931 21.811772c-52.622498 55.997362-40.99774 163.492608-192.366216 163.492608-145.242965 0-137.368624-125.994576-207.614501-176.116113l-30.498618-15.062044c-102.994746-33.81106-217.61425-227.301889-217.61425-336.422146 0-48.372707-0.124843-82.370009 0-112.370277l-16.749476 0c-26.123984 0-47.248094-28.184923-47.248094-63.996546l0-62.997799c0-35.873022 21.12411-64.996316 47.248094-64.996316l929.330874 0c26.123984 0 47.371914 29.123294 47.371914 64.996316l0 62.997799C1023.974929 97.969545 1002.725976 126.154467 976.603015 126.154467zM959.978383-0.838855c0-0.343831 0-0.687662-0.030699-0.99977l-895.894344 0c-0.031722 0.312108-0.031722 0.655939-0.031722 0.99977l0 62.997799c17.030885 0 33.342386 6.78145 45.341674 18.84316s18.718317 28.404933 18.654872 45.404096c-0.094144 19.030425-0.062422 39.654138-0.031722 64.559365l0.031722 47.560202c0 73.79982 73.220628 201.87273 138.009214 254.573 3.65832-148.909471 6.829546-155.833161 9.147334-160.795173 1.089821-3.155876 2.77316-10.031471 4.948709-18.593474 16.225543-63.715137 24.092721-85.183078 41.689495-95.401814 5.058203-2.936889 10.582009-4.343935 16.038278-4.343935 11.030218 0 21.7647 5.719258 27.701922 15.936971 7.506974 12.905938 4.948709 28.935006-5.265934 38.905078-5.500271 11.030218-14.608719 46.810119-18.147312 60.685127-3.484358 13.71742-6.476505 24.279986-6.246261 22.248723-2.001587 12.577456-4.831029 95.827509-6.639211 175.355797l11.220552 5.541203c3.062755 1.500167 6.031367 3.281743 8.843412 5.281283 36.279275 25.904996 56.153928 61.435211 73.684186 92.777033 28.404933 50.810223 42.091654 71.433936 96.745415 71.433936 66.590628 0 76.777641-21.467941 99.152231-68.497047 11.374048-23.936155 24.310685-51.122331 46.591131-74.8088 2.781346-2.99931 5.874801-5.687536 9.187243-8.093329l20.142759-14.523785c-1.799996-82.532715-4.729721-172.008562-4.971222-178.842201-1.440815-3.155876-4.561899-13.936407-8.120958-27.966958-3.51608-13.875009-12.558014-49.592488-18.034748-60.590983-10.202363-9.998725-12.753465-25.998117-5.249561-38.905078 5.937223-10.217712 16.671705-15.936971 27.701922-15.936971 5.453199 0 10.983145 1.407046 16.038278 4.343935 17.609053 10.217712 25.447579 31.686676 41.584094 95.370091 2.168386 8.562003 3.843538 15.498996 4.320399 17.155728 2.946099 6.450922 6.252401 13.684674 10.027377 173.501566 66.862827-45.00296 137.863904-207.058846 137.863904-265.809925l0-112.370277c0-35.341926 28.65462-63.996546 63.996546-63.996546L959.977359-0.838855z"  horiz-adv-x="1024" />

    
    <glyph glyph-name="zhenggaijiancha" unicode="&#58926;" d="M953.274192 267.206994l-21.366633 21.325701c-5.910617 5.880941-15.507182 5.880941-21.391193 0l-32.075533-31.949666 42.75885-42.652426 32.075533 31.949666C959.186855 251.76121 959.186855 261.295354 953.274192 267.206994zM728.751602 107.300051l-14.251585-56.841589 56.979736 14.21884L728.751602 107.300051zM739.51576 117.977227l42.72815-42.621726 128.300085 127.927601-42.756803 42.652426L739.51576 117.977227zM839.594083 30.827355c0-38.442544-27.164686-52.501748-65.626673-52.501748L157.075455-21.674393c-16.229636-0.966001-52.501748 33.390481-52.501748 52.501748L104.573707 739.596857c1.426489 19.86135 34.018791 52.501748 52.501748 52.501748l616.891955 0c30.474059 0.665149 65.626673-31.57002 65.626673-52.501748L839.594083 306.459996c0-10.377348 39.375799-10.377348 39.375799 0L878.969882 726.471932c0 53.803393-47.801702 105.002472-101.634772 105.002472L162.815179 831.474404c-53.827953 0-97.617271-43.767829-97.617271-97.571223l0-697.383174c0-53.80237 43.789319-97.570199 97.617271-97.570199l614.519931 0c53.834092 0 101.634772 38.075177 101.634772 91.877547C878.969882 49.903829 839.594083 49.903829 839.594083 30.827355zM252.739235 655.599791c-5.16565 5.158487-12.421914 8.162914-19.723204 8.162914-7.30129 0-14.557554-3.004427-19.718087-8.162914-5.164626-5.16258-8.172123-12.413727-8.172123-19.713994 0-7.297197 3.007497-14.549368 8.172123-19.711947 5.160533-5.15951 12.416797-8.162914 19.718087-8.162914 7.30129 0 14.557554 3.003404 19.723204 8.162914 5.164626 5.16258 8.170077 12.413727 8.170077 19.711947C260.909311 643.186064 257.903861 650.437212 252.739235 655.599791zM629.588115 660.845259 288.328801 660.845259c-15.683191 0-15.244192-38.895869 0.440022-38.895869l340.819293-0.479931C645.457548 621.468436 645.457548 660.845259 629.588115 660.845259zM252.739235 553.372525c-5.16565 5.158487-12.421914 8.162914-19.723204 8.162914-7.30129 0-14.557554-3.004427-19.718087-8.162914-5.164626-5.16258-8.172123-12.413727-8.172123-19.712971 0-7.299243 3.007497-14.550391 8.172123-19.712971 5.160533-5.15951 12.416797-8.163937 19.718087-8.163937 7.30129 0 14.557554 3.004427 19.723204 8.163937 5.164626 5.16258 8.170077 12.413727 8.170077 19.712971C260.909311 540.958798 257.903861 548.210969 252.739235 553.372525zM629.588115 555.841763 288.328801 555.841763c-15.868409 0-15.868409-39.375799 0-39.375799l341.259314 0C645.457548 516.465964 645.457548 555.841763 629.588115 555.841763zM252.739235 451.146283c-5.16565 5.158487-12.421914 8.162914-19.723204 8.162914-7.30129 0-14.557554-3.004427-19.718087-8.162914-5.164626-5.16258-8.172123-12.413727-8.172123-19.712971 0-7.299243 3.007497-14.550391 8.172123-19.713994 5.160533-5.16258 12.416797-8.162914 19.718087-8.162914 7.30129 0 14.557554 3.000334 19.723204 8.162914 5.164626 5.163603 8.170077 12.415774 8.170077 19.713994C260.909311 438.732555 257.903861 445.983703 252.739235 451.146283zM233.016031 357.11263c-7.30129 0-14.557554-3.004427-19.718087-8.167007-5.164626-5.158487-8.172123-12.413727-8.172123-19.712971s3.007497-14.552437 8.172123-19.708877c5.160533-5.163603 12.416797-8.167007 19.718087-8.167007 7.30129 0 14.557554 3.003404 19.723204 8.167007 5.164626 5.15644 8.170077 12.409634 8.170077 19.708877s-3.00545 14.554484-8.170077 19.712971C247.573585 354.108203 240.317321 357.11263 233.016031 357.11263zM629.588115 450.839291 288.328801 450.839291c-15.683191 0-15.244192-38.895869 0.440022-38.895869l340.819293-0.479931C645.457548 411.462468 645.457548 450.839291 629.588115 450.839291zM629.588115 345.835795 288.328801 345.835795c-15.868409 0-15.868409-39.375799 0-39.375799l341.259314 0C645.457548 306.459996 645.457548 345.835795 629.588115 345.835795z"  horiz-adv-x="1024" />

    
    <glyph glyph-name="more" unicode="&#58935;" d="M147.012 465.109c-44.791 0-81.108-36.304-81.108-81.109 0-44.779 36.316-81.108 81.108-81.108 44.792 0 81.109 36.329 81.109 81.108 0 44.805-36.316 81.109-81.109 81.109zM511.999 465.109c-44.791 0-81.108-36.304-81.108-81.109 0-44.779 36.316-81.108 81.108-81.108 44.792 0 81.109 36.329 81.109 81.108 0 44.805-36.317 81.109-81.109 81.109zM876.987 465.109c-44.791 0-81.108-36.304-81.108-81.109 0-44.779 36.316-81.108 81.108-81.108s81.108 36.329 81.108 81.108c-0.001 44.805-36.317 81.109-81.108 81.109z"  horiz-adv-x="1024" />

    
    <glyph glyph-name="yduifenlei" unicode="&#59008;" d="M64.570109 742.411973l894.859781 0 0-92.076068L64.570109 650.335904 64.570109 742.411973 64.570109 742.411973zM64.570109 742.411973M64.570109 430.036499l894.859781 0 0-92.077092L64.570109 337.959408 64.570109 430.036499 64.570109 430.036499zM64.570109 430.036499M64.570109 117.667166l894.859781 0 0-92.078115L64.570109 25.589051 64.570109 117.667166 64.570109 117.667166zM64.570109 117.667166"  horiz-adv-x="1024" />

    
    <glyph glyph-name="shaixuan1" unicode="&#58890;" d="M786.57536 555.04896c0.88064 0.88064 1.65888 1.82272 2.3552 2.78528 12.92288 14.5408 20.00896 33.0752 20.00896 52.5312 0 43.95008-36.18816 79.72864-80.6912 79.72864l-453.0176 0c-44.48256 0-80.6912-35.75808-80.6912-79.72864 0-18.98496 6.73792-37.04832 19.06688-51.42528 0.90112-1.4336 1.96608-2.80576 3.21536-4.05504l178.9952-176.8448 0-185.5488c0-6.77888 3.05152-12.84096 7.8848-16.95744 0.28672-0.26624 0.53248-0.53248 0.8192-0.77824l160.84992-134.8608c4.15744-3.4816 9.23648-5.20192 14.31552-5.20192 6.26688 0 12.51328 2.62144 16.896 7.72096 4.21888 4.89472 5.8368 11.10016 5.03808 17.01888L601.62048 372.3264 786.57536 555.04896 786.57536 555.04896zM251.71968 583.74144c-0.6144 0.83968-1.26976 1.67936-2.02752 2.4576-6.32832 6.53312-9.80992 15.09376-9.80992 24.14592 0 19.2512 15.85152 34.93888 35.34848 34.93888l453.0176 0c19.49696 0 35.36896-15.6672 35.36896-34.93888 0-8.99072-3.44064-17.53088-9.70752-24.04352-0.45056-0.47104-0.86016-0.94208-1.24928-1.4336l-189.72672-187.43296c-4.25984-4.1984-6.63552-9.89184-6.63552-15.83104l0-276.70528-115.13856 96.54272 0 185.87648c0 5.9392-2.39616 11.63264-6.63552 15.83104L251.71968 583.74144 251.71968 583.74144z"  horiz-adv-x="1024" />

    
    <glyph glyph-name="renwu" unicode="&#58963;" d="M840.454 833.558h-638.605c-76.445 0-139.409-63.68-139.409-141.007v-614.048c0-77.326 62.963-141.007 139.408-141.007h638.605c76.454 0 139.408 63.68 139.408 141.007v614.048c0 77.326-58.454 141.007-139.408 141.007zM912.409 73.95c0-40.931-31.473-72.772-71.954-72.772h-638.605c-40.473 0-71.954 31.84-71.954 72.772v618.603c0 40.931 31.481 72.772 71.954 72.772h638.605c40.481 0 71.954-31.84 71.954-72.772v-618.603zM399.73 610.68l-98.936-100.065-44.973 45.477c-13.5 13.647-35.981 13.647-44.973 0-13.5-13.638-13.5-36.386 0-45.477l71.954-72.781c4.5-4.546 13.492-9.092 26.981-9.092 13.5 0 13.5 4.546 26.981 9.092l121.426 122.813c13.5 13.647 13.5 36.386 0 45.487-26.981 13.638-44.973 13.638-58.463 4.546zM813.473 556.092h-310.308c-22.481 0-31.481-13.638-31.481-31.84 0-22.739 13.5-31.84 31.481-31.84h310.316c22.481 0 31.473 13.647 31.473 31.84 0 18.202-13.5 31.84-31.481 31.84zM318.775 351.416c-58.463 0-103.436-45.487-103.436-104.62 0-59.125 44.973-104.611 103.436-104.611 58.473 0 103.436 45.487 103.436 104.611 0 63.68-49.463 104.62-103.436 104.62zM318.775 214.957c-22.481 0-35.973 13.647-35.973 36.386 0 22.747 13.492 36.395 35.973 36.395 22.492 0 35.981-13.647 35.981-36.395 0-22.739-17.992-36.386-35.981-36.386zM813.473 283.192h-310.308c-22.481 0-31.481-13.647-31.481-31.849 0-18.184 13.5-31.84 31.481-31.84h310.316c22.481 0 31.473 13.647 31.473 31.84 0 18.202-13.5 31.84-31.481 31.84z"  horiz-adv-x="1044" />

    
    <glyph glyph-name="shaixuan" unicode="&#58954;" d="M447.93-32.05A64.13 64.13 0 0 0 384 32V352.43L81.5 679.1A64 64 0 0 0 128 787h0.25l767.88-6a64 64 0 0 0 46.29-108L640 352.26V96a32 32 0 0 0-14.84-27l-145.72-92.62a32 32 0 0 0-2.85-1.61 64 64 0 0 0-28.66-6.82zM128 723l0.31-0.33 311.11-336A32 32 0 0 0 448 365v-332.79l128 81.34V365a32 32 0 0 0 8.72 22l311.14 329.85 0.14 0.15h-0.25z m768.12-5.85"  horiz-adv-x="1024" />

    
    <glyph glyph-name="gongzuotai" unicode="&#58981;" d="M921.6 819.2h-819.2c-28.16 0-51.2-23.04-51.2-51.2v-588.8c0-28.16 23.04-51.2 51.2-51.2h307.2v-102.4h-281.6c-12.8 0-25.6-12.8-25.6-25.6s12.8-25.6 25.6-25.6h768c12.8 0 25.6 12.8 25.6 25.6s-12.8 25.6-25.6 25.6h-281.6v102.4h307.2c28.16 0 51.2 23.04 51.2 51.2v588.8c0 28.16-23.04 51.2-51.2 51.2z m-358.4-793.6h-102.4v102.4h102.4v-102.4z m358.4 153.6h-819.2v588.8h819.2v-588.8zM281.6 281.6c12.8 0 25.6 12.8 25.6 25.6v128c0 12.8-12.8 25.6-25.6 25.6s-25.6-12.8-25.6-25.6v-128c0-12.8 12.8-25.6 25.6-25.6zM435.2 281.6c12.8 0 25.6 12.8 25.6 25.6v230.4c0 12.8-12.8 25.6-25.6 25.6s-25.6-12.8-25.6-25.6v-230.4c0-12.8 12.8-25.6 25.6-25.6zM588.8 281.6c12.8 0 25.6 12.8 25.6 25.6v179.2c0 12.8-12.8 25.6-25.6 25.6s-25.6-12.8-25.6-25.6v-179.2c0-12.8 12.8-25.6 25.6-25.6zM742.4 281.6c12.8 0 25.6 12.8 25.6 25.6v281.6c0 12.8-12.8 25.6-25.6 25.6s-25.6-12.8-25.6-25.6v-281.6c0-12.8 12.8-25.6 25.6-25.6z"  horiz-adv-x="1024" />

    
    <glyph glyph-name="touxiang" unicode="&#58995;" d="M512 864a480 480 0 1 1 0-960 480 480 0 0 1 0 960z m-3.072-168.192a144.64 144.64 0 1 0 0-289.28 144.64 144.64 0 0 0 0 289.28zM256 121.856c-1.472 148.224 70.976 240.256 161.792 276.416l93.248-155.584 98.24 152c87.616-38.4 157.248-129.344 158.656-272.96-161.088-63.872-330.88-68.48-511.936 0.128z"  horiz-adv-x="1024" />

    
    <glyph glyph-name="wocanyude" unicode="&#59005;" d="M741.12 780.8H39.68C17.92 780.8 0 762.88 0 741.12V-89.6c0-20.48 17.92-38.4 39.68-38.4H742.4c21.76 0 39.68 17.92 39.68 39.68V741.12C780.8 762.88 762.88 780.8 741.12 780.8zM755.2-88.32c0-7.68-6.4-14.08-14.08-14.08H39.68c-7.68 0-14.08 6.4-14.08 14.08V741.12c0 7.68 6.4 14.08 14.08 14.08H742.4c7.68 0 14.08-6.4 14.08-14.08v-829.44zM485.12 691.2H103.68C81.92 691.2 64 673.28 64 651.52V627.2c0-20.48 17.92-38.4 39.68-38.4H486.4c21.76 0 39.68 17.92 39.68 39.68V652.8c-1.28 20.48-19.2 38.4-40.96 38.4z m14.08-62.72c0-7.68-6.4-14.08-14.08-14.08H103.68c-7.68 0-14.08 6.4-14.08 14.08V652.8c0 6.4 6.4 12.8 14.08 12.8H486.4c7.68 0 14.08-6.4 14.08-14.08v-23.04zM692.48 666.88l-58.88-49.92-26.88 32c-3.84 5.12-12.8 6.4-17.92 1.28-5.12-3.84-6.4-12.8-1.28-17.92L614.4 601.6c3.84-5.12 10.24-7.68 16.64-8.96h2.56c6.4 0 11.52 2.56 16.64 6.4l58.88 49.92c5.12 5.12 6.4 12.8 1.28 17.92s-12.8 5.12-17.92 0zM485.12 512H103.68C81.92 512 64 494.08 64 472.32V448c0-20.48 17.92-38.4 39.68-38.4H486.4c21.76 0 39.68 17.92 39.68 39.68V473.6c-1.28 20.48-19.2 38.4-40.96 38.4z m14.08-62.72c0-7.68-6.4-14.08-14.08-14.08H103.68c-7.68 0-14.08 6.4-14.08 14.08V473.6c0 6.4 6.4 12.8 14.08 12.8H486.4c7.68 0 14.08-6.4 14.08-14.08v-23.04zM692.48 487.68l-58.88-49.92-26.88 32c-3.84 5.12-12.8 6.4-17.92 1.28-5.12-3.84-6.4-12.8-1.28-17.92L614.4 422.4c3.84-5.12 10.24-7.68 16.64-8.96h2.56c6.4 0 11.52 2.56 16.64 6.4l58.88 49.92c5.12 5.12 6.4 12.8 1.28 17.92-5.12 3.84-12.8 5.12-17.92 0zM485.12 332.8H103.68C81.92 332.8 64 314.88 64 293.12V268.8c0-20.48 17.92-38.4 39.68-38.4H486.4c21.76 0 39.68 17.92 39.68 39.68V294.4c-1.28 20.48-19.2 38.4-40.96 38.4z m14.08-62.72c0-7.68-6.4-14.08-14.08-14.08H103.68c-7.68 0-14.08 6.4-14.08 14.08V294.4c0 6.4 6.4 12.8 14.08 12.8H486.4c7.68 0 14.08-6.4 14.08-14.08v-23.04zM692.48 308.48l-58.88-49.92-26.88 32c-3.84 5.12-12.8 6.4-17.92 1.28-5.12-3.84-6.4-12.8-1.28-17.92L614.4 243.2c3.84-5.12 10.24-7.68 16.64-8.96h2.56c6.4 0 11.52 2.56 16.64 6.4l58.88 49.92c5.12 5.12 6.4 12.8 1.28 17.92-5.12 3.84-12.8 5.12-17.92 0zM485.12 153.6H103.68C81.92 153.6 64 135.68 64 113.92V89.6c0-20.48 17.92-38.4 39.68-38.4H486.4c21.76 0 39.68 17.92 39.68 39.68V115.2c-1.28 20.48-19.2 38.4-40.96 38.4z m14.08-62.72c0-7.68-6.4-14.08-14.08-14.08H103.68c-7.68 0-14.08 6.4-14.08 14.08V115.2c0 6.4 6.4 12.8 14.08 12.8H486.4c7.68 0 14.08-6.4 14.08-14.08v-23.04zM692.48 129.28l-58.88-49.92-26.88 32c-3.84 5.12-12.8 6.4-17.92 1.28-5.12-3.84-6.4-12.8-1.28-17.92L614.4 64c3.84-5.12 10.24-7.68 16.64-8.96h2.56c6.4 0 11.52 2.56 16.64 6.4l58.88 49.92c5.12 5.12 6.4 12.8 1.28 17.92-5.12 3.84-12.8 5.12-17.92 0zM985.6 896H294.4c-20.48 0-38.4-16.64-38.4-38.4v-25.6c0-7.68 5.12-12.8 12.8-12.8s12.8 5.12 12.8 12.8V857.6c0 6.4 5.12 12.8 12.8 12.8h691.2c6.4 0 12.8-5.12 12.8-12.8v-819.2c0-6.4-5.12-12.8-12.8-12.8H832c-7.68 0-12.8-5.12-12.8-12.8s5.12-12.8 12.8-12.8h153.6c20.48 0 38.4 16.64 38.4 38.4V857.6c0 21.76-16.64 38.4-38.4 38.4zM887.04 720.64h2.56c6.4 0 11.52 2.56 16.64 6.4l58.88 49.92c5.12 5.12 6.4 12.8 1.28 17.92s-12.8 6.4-17.92 1.28l-58.88-49.92-26.88 32c-3.84 5.12-12.8 6.4-17.92 1.28-5.12-3.84-6.4-12.8-1.28-17.92L870.4 729.6c3.84-5.12 10.24-8.96 16.64-8.96zM843.52 582.4L870.4 550.4c3.84-5.12 10.24-7.68 16.64-8.96h2.56c6.4 0 11.52 2.56 16.64 6.4l58.88 49.92c5.12 5.12 6.4 12.8 1.28 17.92s-12.8 6.4-17.92 1.28l-58.88-49.92-26.88 32c-3.84 5.12-12.8 6.4-17.92 1.28-5.12-3.84-6.4-12.8-1.28-17.92zM843.52 403.2L870.4 371.2c3.84-5.12 10.24-7.68 16.64-8.96h2.56c6.4 0 11.52 2.56 16.64 6.4l58.88 49.92c5.12 5.12 6.4 12.8 1.28 17.92-5.12 5.12-12.8 6.4-17.92 1.28l-58.88-49.92-26.88 32c-3.84 5.12-12.8 6.4-17.92 1.28-5.12-3.84-6.4-12.8-1.28-17.92zM843.52 224L870.4 192c3.84-5.12 10.24-7.68 16.64-8.96h2.56c6.4 0 11.52 2.56 16.64 6.4l58.88 49.92c5.12 5.12 6.4 12.8 1.28 17.92-5.12 5.12-12.8 6.4-17.92 1.28l-58.88-49.92-26.88 32c-3.84 5.12-12.8 6.4-17.92 1.28-5.12-3.84-6.4-12.8-1.28-17.92z"  horiz-adv-x="1024" />

    
    <glyph glyph-name="flag" unicode="&#58942;" d="M707.57516 790.268894c-169.857237 0-169.857237 68.323677-339.715673 68.323677-98.048723 0-173.755194-44.89716-173.755194-44.89716l-0.711518-511.499204c0 0 76.418188 44.833203 174.466712 44.833203 169.85304 0 169.85304-68.327874 339.715673-68.327874 106.258357 0 213.002185 54.752678 213.002185 54.752678L920.577345 844.903252C920.577544 844.903252 813.838913 790.268894 707.57516 790.268894L707.57516 790.268894zM134.118564-92.637696c-16.954505 0-30.699186 13.744681-30.699186 30.699186L103.419378 829.9413959999999c0 16.954905 13.744681 30.699186 30.699186 30.699186s30.699186-13.744082 30.699186-30.699186l0-891.880105C164.81755-78.89301499999999 151.073068-92.637696 134.118564-92.637696z"  horiz-adv-x="1024" />

    
    <glyph glyph-name="icon--" unicode="&#59204;" d="M294.4 471.04c-28.16 0-51.2-23.04-51.2-51.2s23.04-51.2 51.2-51.2 51.2 23.04 51.2 51.2-23.04 51.2-51.2 51.2z m204.8 0c-28.16 0-51.2-23.04-51.2-51.2s23.04-51.2 51.2-51.2 51.2 23.04 51.2 51.2-23.04 51.2-51.2 51.2z m204.8 0c-28.16 0-51.2-23.04-51.2-51.2s23.04-51.2 51.2-51.2 51.2 23.04 51.2 51.2-23.04 51.2-51.2 51.2z m-204.8 307.2c-225.28 0-409.6-161.28-409.6-358.4 0-112.64 58.88-215.04 153.6-279.04v-181.76l179.2 110.08c25.6-5.12 51.2-7.68 76.8-7.68 225.28 0 409.6 161.28 409.6 358.4 0 199.68-184.32 358.4-409.6 358.4z m0-665.6c-30.72 0-58.88 2.56-87.04 10.24L291.84 51.2l2.56 117.76c-92.16 56.32-153.6 148.48-153.6 250.88 0 168.96 161.28 307.2 358.4 307.2s358.4-138.24 358.4-307.2-161.28-307.2-358.4-307.2z"  horiz-adv-x="1024" />

    
    <glyph glyph-name="zuzhijigou" unicode="&#58943;" d="M800 320a161 161 0 0 1-23.07-1.67l-77.11 106.13a240 240 0 1 1-344.26 0.64l-77.29-106.38A195.8 195.8 0 0 1 256 320a192 192 0 1 1 135.77-56.25 193.13 193.13 0 0 1-34.58 27.49l62.73 86.34a241.12 241.12 0 0 1 215.36-0.4L701.52 286A159.82 159.82 0 0 1 640 160c0-88.22 71.77-160 160-160s160 71.78 160 160-71.77 160-160 160zM256 16a112 112 0 1 0 112 112 112.12 112.12 0 0 0-112-112z m272 416c-88.22 0-160 71.78-160 160s71.77 160 160 160 160-71.78 160-160-71.78-160-160-160z m272-352a80 80 0 1 0 80 80 80.09 80.09 0 0 0-80-80z"  horiz-adv-x="1024" />

    
    <glyph glyph-name="xiaoxi" unicode="&#59000;" d="M512 896C229.5 896 0 698.8 0 454.2s229.5-441.8 512-441.8c56.9 0 138.4-1.9 163.1 0 1.9-7.6 185.8-138.4 185.8-140.3V105.2c115.7 89.2 163.1 206.7 163.1 349C1024 698.8 794.5 896 512 896zM720.6 611.6H303.4v-56.9h417.2v56.9z m0-132.8H303.4v-56.9h417.2v56.9z m0-132.7H303.4v-56.9h417.2v56.9z"  horiz-adv-x="1024" />

    
    <glyph glyph-name="xinzeng" unicode="&#58893;" d="M992 368H32c-16 0-32 12.8-32 32 0 16 12.8 32 32 32h960c16 0 32-12.8 32-32s-12.8-32-32-32zM544 864v-960c0-16-12.8-32-32-32-16 0-32 12.8-32 32V864c0 16 12.8 32 32 32s32-12.8 32-32z"  horiz-adv-x="1024" />

    
    <glyph glyph-name="delete" unicode="&#58881;" d="M512 275.456l253.338-253.338a76.6976 76.6976 0 1 1 108.544 108.544L620.646 384l253.235 253.338a76.6976 76.6976 0 1 1-108.544 108.544L512 492.646 258.662 745.8820000000001a76.6976 76.6976 0 1 1-108.544-108.544L403.354 384 150.118 130.66200000000003a76.6976 76.6976 0 1 1 108.544-108.544L512 275.35400000000004Z"  horiz-adv-x="1024" />

    
    <glyph glyph-name="jiancha_o" unicode="&#60353;" d="M618.666667 213.333333l42.666666 149.333334 42.666667-12.8-38.4-136.533334H725.333333v-42.666666h-256v42.666666h149.333334z m46.933333 213.333334L597.333333 499.2 524.8 426.666667h140.8z m12.8-12.8v-29.866667H512v34.133333l-25.6-25.6-29.866667 29.866667L593.066667 554.666667l4.266666 4.266666 136.533334-136.533333-29.866667-29.866667-25.6 21.333334z m-256 25.6v-29.866667l17.066667 4.266667 29.866666-81.066667-38.4-12.8-4.266666 17.066667V170.666667H384v162.133333l-21.333333-55.466667-38.4 12.8L384 456.533333V469.333333H341.333333V512h42.666667V554.666667h38.4v-42.666667H469.333333v-42.666667H422.4v-29.866666zM213.333333 682.666667h640v-640H213.333333V682.666667z m42.666667-42.666667v-554.666667h554.666667V640H256z m226.133333-290.133333l42.666667 12.8 34.133333-123.733334-42.666666-12.8-34.133334 123.733334z m72.533334 8.533333l42.666666 12.8 34.133334-123.733333-42.666667-12.8-34.133333 123.733333z"  horiz-adv-x="1024" />

    
    <glyph glyph-name="zujian-lianxiren" unicode="&#58887;" d="M455.111111-128H159.288889C72.059259-128 0-59.733333 0 23.703704V740.503704C0 827.733333 72.059259 896 159.288889 896h667.496296C914.014815 896 986.074074 827.733333 986.074074 740.503704v-159.288889c-41.718519 75.851852-121.362963 128.948148-216.177778 128.948148-136.533333 0-242.725926-109.985185-242.725926-242.725926 0-41.718519 11.377778-79.644444 26.548149-113.777778-11.377778-7.585185-18.962963-15.17037-30.340741-26.548148-72.059259-60.681481-163.081481-189.62963-155.496297-333.748148 3.792593-64.474074 34.133333-102.4 87.22963-121.362963z m530.962963 466.488889c-3.792593 0-3.792593 3.792593-7.585185 3.792592 3.792593 3.792593 3.792593 7.585185 7.585185 11.377778v-15.17037zM413.392593 573.62963c0 11.377778-7.585185 18.962963-18.962963 18.962963h-227.555556c-7.585185 0-18.962963-7.585185-18.962963-18.962963s11.377778-18.962963 18.962963-18.962963h227.555556c11.377778 0 18.962963 7.585185 18.962963 18.962963z m-113.777778-303.407408c0 11.377778-7.585185 18.962963-18.962963 18.962963h-113.777778c-11.377778 0-18.962963-7.585185-18.962963-18.962963s7.585185-18.962963 18.962963-18.962963h113.777778c11.377778 0 18.962963 7.585185 18.962963 18.962963z m113.777778 151.703704c0 11.377778-7.585185 18.962963-18.962963 18.962963h-227.555556c-11.377778 0-18.962963-7.585185-18.962963-18.962963s11.377778-18.962963 18.962963-18.962963h227.555556c11.377778 0 18.962963 7.585185 18.962963 18.962963zM853.333333 327.111111c11.377778 0 45.511111-7.585185 87.22963-45.511111 53.096296-49.303704 125.155556-144.118519 121.362963-257.896296-3.792593-113.777778-125.155556-113.777778-303.407407-113.777778s-299.614815 0-303.407408 113.777778c-3.792593 113.777778 64.474074 212.385185 121.362963 257.896296s94.814815 45.511111 94.814815 45.511111h18.962963c-49.303704 30.340741-79.644444 79.644444-79.644445 140.325926C606.814815 558.459259 678.874074 630.518519 769.896296 630.518519s163.081481-72.059259 163.081482-163.081482c0-60.681481-30.340741-113.777778-79.644445-140.325926z"  horiz-adv-x="1062" />

    
    <glyph glyph-name="daiban" unicode="&#59020;" d="M832 755.2H192a51.2 51.2 0 0 1-51.2-51.2v-640a51.2 51.2 0 0 1 51.2-51.2h640a51.2 51.2 0 0 1 51.2 51.2V704a51.2 51.2 0 0 1-51.2 51.2zM614.4 230.39999999999998h-12.8a12.8 12.8 0 1 0 0 25.6h12.8a12.8 12.8 0 1 0 0-25.6z m64 0h-12.8a12.8 12.8 0 1 0 0 25.6h12.8a12.8 12.8 0 1 0 0-25.6z m64 0h-12.8a12.8 12.8 0 1 0 0 25.6h12.8a12.8 12.8 0 1 0 0-25.6z m9.4464 283.9296l-280.576-280.576a19.2 19.2 0 0 0-27.1488 0L272.1536 405.7216a19.2 19.2 0 1 0 27.1488 27.1488l158.4-158.4 266.9952 267.008a19.2 19.2 0 1 0 27.1488-27.1488z"  horiz-adv-x="1024" />

    
    <glyph glyph-name="caozuozhiliang" unicode="&#58891;" d="M810.437671 721.63267533c-79.107241 18.756051-267.06957 62.230684-303.648405 62.230683-36.565873 0-223.685671-43.565367-302.365165-62.230683a47.790987 47.790987 0 0 1-36.734379-46.546633v-271.761823c0-275.676354 311.399696-377.544911 324.698734-381.718683 4.692253-1.451747 9.553013-2.216506 14.491544-2.216507 4.860759 0 9.721519 0.764759 14.40081 2.216507 13.299038 4.173772 326.059747 106.042329 326.059747 381.809417V675.08604233a48.024304 48.024304 0 0 1-36.902886 46.546633z m-4.096-318.26957c0-249.648608-299.565367-344.064-299.565367-344.064s-298.165468 94.506127-298.165469 344.064V681.46335833s262.481013 62.386228 298.165469 62.386228c35.697418 0 299.565367-62.386228 299.565367-62.386228v-278.100253zM361.005367 479.82609233a21.516962 21.516962 0 0 1-30.486683 0 21.504 21.504 0 0 1 0-30.486683l129.775797-129.775798c4.22562-4.22562 9.747443-6.299544 15.204456-6.299544 5.457013 0 11.056608 2.073924 15.204455 6.299544l236.28476 236.28476c8.451241 8.451241 8.451241 22.035443 0 30.486684a21.504 21.504 0 0 1-30.486684 0L475.576709 365.33252332999996l-114.571342 114.493569z m0 0"  horiz-adv-x="1024" />

    
    <glyph glyph-name="renwufenpai" unicode="&#59075;" d="M758.247619 140.190476l-43.885714-43.885714c-9.752381-9.752381-9.752381-24.380952 0-34.133333 9.752381-9.752381 24.380952-9.752381 34.133333 0L828.952381 140.190476c2.438095 0 4.87619 2.438095 7.314286 4.876191 4.87619 4.87619 7.314286 12.190476 7.314285 19.504762 0 7.314286-2.438095 12.190476-7.314285 19.504761-2.438095 2.438095-4.87619 4.87619-7.314286 4.876191l-80.457143 80.457143c-9.752381 9.752381-24.380952 9.752381-34.133333 0-9.752381-9.752381-9.752381-24.380952 0-34.133334l43.885714-43.885714H585.142857c-14.628571 0-24.380952-9.752381-24.380952-24.380952s9.752381-24.380952 24.380952-24.380953h173.104762zM877.714286 401.066667c-48.761905 34.133333-107.27619 56.07619-170.666667 56.07619-160.914286 0-292.571429-131.657143-292.571429-292.571428 0-87.771429 39.009524-165.790476 99.961905-219.428572H170.666667c-41.447619 0-73.142857 31.695238-73.142857 73.142857V749.714286c0 41.447619 31.695238 73.142857 73.142857 73.142857h633.904762c41.447619 0 73.142857-31.695238 73.142857-73.142857v-348.647619zM219.428571 676.571429c-14.628571 0-24.380952-9.752381-24.380952-24.380953s9.752381-24.380952 24.380952-24.380952h487.619048c14.628571 0 24.380952 9.752381 24.380952 24.380952s-9.752381 24.380952-24.380952 24.380953H219.428571z m0-170.666667c-14.628571 0-24.380952-9.752381-24.380952-24.380952s9.752381-24.380952 24.380952-24.380953h243.809524c14.628571 0 24.380952 9.752381 24.380953 24.380953s-9.752381 24.380952-24.380953 24.380952H219.428571z m0-170.666667c-14.628571 0-24.380952-9.752381-24.380952-24.380952s9.752381-24.380952 24.380952-24.380953h97.52381c14.628571 0 24.380952 9.752381 24.380952 24.380953s-9.752381 24.380952-24.380952 24.380952H219.428571z m487.619048-414.47619c-134.095238 0-243.809524 109.714286-243.809524 243.809524s109.714286 243.809524 243.809524 243.809523 243.809524-109.714286 243.809524-243.809523-109.714286-243.809524-243.809524-243.809524z"  horiz-adv-x="1024" />

    
    <glyph glyph-name="jianchazhibiao" unicode="&#58918;" d="M862.6 766.6l0.1-0.1V-1l-0.1-0.1H160.8l-0.1 0.1V766.5l0.1 0.1h701.8m0.1 64h-702c-35.2 0-64-28.8-64-64v-767.7c0-35.2 28.8-64 64-64h702c35.2 0 64 28.8 64 64V766.6c0 35.2-28.8 64-64 64zM702.1 606.5H318.8c-17.7 0-32 14.3-32 32s14.3 32 32 32h383.3c17.7 0 32-14.3 32-32s-14.4-32-32-32zM702.1 478.7H318.8c-17.7 0-32 14.3-32 32s14.3 32 32 32h383.3c17.7 0 32-14.3 32-32s-14.4-32-32-32zM446.8 349.5h-128c-17.7 0-32 14.3-32 32s14.3 32 32 32h128c17.7 0 32-14.3 32-32s-14.3-32-32-32zM639.4 121.8c-72.9 0-132.2 59.3-132.2 132.2s59.3 132.2 132.2 132.2S771.7 327 771.7 254.1s-59.3-132.3-132.3-132.3z m0 214.5c-45.4 0-82.2-36.9-82.2-82.2s36.9-82.2 82.2-82.2 82.2 36.9 82.2 82.2-36.8 82.2-82.2 82.2zM806.3 62.7c-6.4 0-12.8 2.4-17.7 7.3l-85.3 85.5c-9.8 9.8-9.7 25.6 0 35.4 9.8 9.8 25.6 9.7 35.4 0l85.3-85.5c9.8-9.8 9.7-25.6 0-35.4-4.9-4.8-11.3-7.3-17.7-7.3z"  horiz-adv-x="1024" />

    
    <glyph glyph-name="jihuaguanli" unicode="&#58889;" d="M719.81568 302.72512h-61.44v61.44a20.48 20.48 0 0 1-40.96 0v-81.92a20.48 20.48 0 0 1 20.48-20.48h81.92a20.48 20.48 0 0 1 0 40.96zM308.40832 494.7968h102.4v-40.96h-102.4zM470.1184 494.7968h102.4v-40.96h-102.4zM308.40832 406.44096h102.4v-40.96h-102.4zM308.40832 318.08512h102.4v-40.96h-102.4zM444.5184 207.7696H252.98432v378.88H311.8592v-15.36a20.48 20.48 0 0 1 40.96 0v15.36h69.12512v-15.36a20.48 20.48 0 0 1 40.96 0v15.36h69.12512v-15.36a20.48 20.48 0 0 1 40.96 0v15.36h58.87488v-96.96768a20.48 20.48 0 0 1 40.96 0V586.6496c0 22.58432-18.37568 40.96-40.96 40.96h-58.87488v15.36a20.48 20.48 0 0 1-40.96 0v-15.36H462.90432v15.36a20.48 20.48 0 0 1-40.96 0v-15.36H352.8192v15.36a20.48 20.48 0 0 1-40.96 0v-15.36H252.98432c-22.58432 0-40.96-18.37568-40.96-40.96v-378.88c0-22.58432 18.37568-40.96 40.96-40.96H444.5184a20.48 20.48 0 0 1 0 40.96zM637.89568 452.7104c-95.98976 0-174.08-78.09024-174.08-174.08s78.09024-174.08 174.08-174.08 174.08 78.09024 174.08 174.08-78.09536 174.08-174.08 174.08z m0-307.2c-73.40032 0-133.12 59.71968-133.12 133.12s59.71968 133.12 133.12 133.12 133.12-59.71968 133.12-133.12-59.71968-133.12-133.12-133.12z"  horiz-adv-x="1024" />

    
    <glyph glyph-name="gerenxinxiicon-" unicode="&#58894;" d="M861.484203-70.818516H176.05878C82.762675-70.818516 6.771492-12.132256 6.771492 59.3446V689.845702c0 72.229243 75.991183 130.163115 169.287288 130.163115h685.425423c93.296106 0 169.287289-58.68626 169.287289-130.163115v-629.748714c0-72.229243-75.991183-130.915503-169.287289-130.915504zM176.05878 755.303453c-46.648053 0-85.019838-29.34313-85.019838-65.457751v-629.748714c0-36.114622 38.371785-65.457752 85.019838-65.457752h685.425423c46.648053 0 85.019838 29.34313 85.019838 65.457752V689.845702c0 36.114622-38.371785 65.457752-85.019838 65.457751H176.05878zM342.336517 376.099927c-63.200588 0-114.362968 51.162381-114.362968 114.362968s51.162381 114.362968 114.362968 114.362968c63.200588 0 114.362968-51.162381 114.362969-114.362968s-51.162381-114.362968-114.362969-114.362968z m0 168.5349c-30.095518 0-54.171932-24.076414-54.171932-54.171932s24.076414-54.171932 54.171932-54.171932 54.171932 24.076414 54.171933 54.171932-24.076414 54.171932-54.171933 54.171932zM486.042616 178.974284c-16.552535 0-30.095518 13.542983-30.095518 30.095518 0 62.4482-51.162381 113.61058-113.610581 113.61058S228.725937 271.518001 228.725937 209.069802c0-16.552535-13.542983-30.095518-30.095518-30.095518s-30.095518 13.542983-30.095518 30.095518c0 95.55327 78.248347 173.801616 173.801616 173.801616 95.55327 0 173.801616-78.248347 173.801617-173.801616 0-17.304923-13.542983-30.095518-30.095518-30.095518zM853.207935 481.43424H592.881705c-16.552535 0-30.095518 13.542983-30.095518 30.095518s13.542983 30.095518 30.095518 30.095518h260.32623c16.552535 0 30.095518-13.542983 30.095518-30.095518s-13.542983-30.095518-30.095518-30.095518zM856.217487 357.290228H589.119765c-16.552535 0-30.095518 13.542983-30.095518 30.095518s13.542983 30.095518 30.095518 30.095518h266.345334c16.552535 0 30.095518-13.542983 30.095518-30.095518s-12.790595-30.095518-29.34313-30.095518zM859.979427 233.146216H585.357825c-16.552535 0-30.095518 13.542983-30.095518 30.095518s13.542983 30.095518 30.095518 30.095518h274.621602c16.552535 0 30.095518-13.542983 30.095518-30.095518s-13.542983-30.095518-30.095518-30.095518z"  horiz-adv-x="1030" />

    
    <glyph glyph-name="touzijihuaguanli" unicode="&#58921;" d="M960 179.2h40.96c12.8 0 23.04-12.8 23.04-28.16v-46.08c0-12.8-10.24-28.16-23.04-28.16H960c-5.12-7.68-10.24-25.6-15.36-38.4l28.16-28.16c10.24-10.24 10.24-23.04 0-33.28l-33.28-33.28c-10.24-10.24-23.04-10.24-33.28 0l-28.16 30.72c-12.8-7.68-30.72-12.8-38.4-15.36v-40.96c0-12.8-12.8-23.04-25.6-23.04H768c-12.8 0-25.6 10.24-25.6 23.04v40.96c-7.68 5.12-25.6 10.24-38.4 15.36l-28.16-28.16c-10.24-10.24-23.04-10.24-33.28 0l-33.28 33.28c-10.24 10.24-10.24 23.04 0 33.28l28.16 28.16c-7.68 12.8-12.8 30.72-15.36 38.4h-40.96c-12.8 0-23.04 12.8-23.04 28.16V153.6c0 12.8 10.24 28.16 23.04 28.16h40.96c5.12 7.68 10.24 25.6 15.36 38.4l-28.16 28.16c-10.24 10.24-10.24 23.04 0 33.28l33.28 33.28c10.24 10.24 23.04 10.24 33.28 0L704 286.72c12.8 7.68 30.72 12.8 38.4 15.36v40.96c0 12.8 12.8 23.04 25.6 23.04h46.08c12.8 0 25.6-10.24 25.6-23.04v-40.96c7.68-5.12 25.6-10.24 38.4-15.36l28.16 28.16c10.24 10.24 23.04 10.24 33.28 0l33.28-33.28c10.24-10.24 10.24-23.04 0-33.28l-28.16-28.16c5.12-15.36 10.24-33.28 15.36-40.96zM683.52 128c0-58.88 46.08-107.52 104.96-107.52S893.44 69.12 893.44 128c0 58.88-46.08 107.52-104.96 107.52-56.32 0-104.96-48.64-104.96-107.52zM509.44-81.92h-345.6c-61.44 0-112.64 51.2-112.64 112.64V783.36C51.2 844.8 102.4 896 163.84 896h637.44c61.44 0 112.64-51.2 112.64-112.64v-358.4h-84.48v358.4c0 15.36-12.8 28.16-28.16 28.16H163.84c-15.36 0-28.16-12.8-28.16-28.16v-752.64c0-15.36 12.8-28.16 28.16-28.16h343.04v-84.48z m-243.2 560.64l-56.32 56.32c-15.36 17.92-15.36 43.52 0 58.88 17.92 15.36 43.52 15.36 58.88 0l30.72-30.72 87.04 99.84c15.36 17.92 43.52 17.92 58.88 2.56 17.92-15.36 17.92-43.52 2.56-58.88L335.36 481.28c-17.92-20.48-51.2-23.04-71.68-5.12 5.12 0 5.12 2.56 2.56 2.56zM704 524.8H545.28c-23.04 0-43.52 17.92-43.52 43.52 0 23.04 17.92 43.52 43.52 43.52H704c23.04 0 43.52-17.92 43.52-43.52S727.04 524.8 704 524.8zM266.24 181.76l-56.32 56.32c-15.36 17.92-15.36 43.52 0 58.88 17.92 15.36 43.52 15.36 58.88 0l30.72-30.72 87.04 99.84c15.36 17.92 43.52 17.92 58.88 2.56 17.92-15.36 17.92-43.52 2.56-58.88L335.36 184.32c-17.92-20.48-51.2-23.04-71.68-5.12 5.12 0 5.12 0 2.56 2.56z"  horiz-adv-x="1024" />

    
    <glyph glyph-name="cebianlanxunjianjilu" unicode="&#58895;" d="M986.496698-44.218182l-135.819636 138.100364a46.266182 46.266182 0 0 1-22.341818 11.822545c67.118545 103.796364 45.149091 242.501818-50.734546 319.627637a233.053091 233.053091 0 0 1-317.672727-23.272728 242.641455 242.641455 0 0 1-5.12-323.723636 233.099636 233.099636 0 0 1 316.788364-33.652364c2.001455-7.586909 5.818182-14.615273 11.170909-20.340363l135.819636-138.053818c12.101818-12.334545 29.789091-17.128727 46.359273-12.613819a48.407273 48.407273 0 0 1 33.978182 34.490182 49.338182 49.338182 0 0 1-12.427637 47.150546v0.465454z m-424.680727 104.029091c-72.424727 30.626909-118.178909 104.075636-114.408727 183.714909 3.723636 79.592727 56.180364 148.293818 131.165091 171.752727a184.32 184.32 0 0 0 203.403636-67.211636 191.674182 191.674182 0 0 0 6.842182-217.320727 184.413091 184.413091 0 0 0-227.002182-70.935273zM690.421062 756.363636H193.59488C176.233425 756.363636 162.735244 746.123636 162.735244 733.090909s14.010182-23.272727 30.859636-23.272727h496.826182c17.314909 0 30.859636 10.24 30.859636 23.272727s-13.544727 23.272727-30.859636 23.272727zM721.280698 593.454545c0 13.032727-14.010182 23.272727-30.813091 23.272728H193.548335C176.279971 616.727273 162.735244 606.487273 162.735244 593.454545s14.010182-23.272727 30.813091-23.272727h496.453818c17.268364 0 31.278545 10.24 31.278545 23.272727zM195.922153 477.090909C177.629789 477.090909 162.735244 466.850909 162.735244 453.818182s14.941091-23.272727 33.186909-23.272727h166.353454C380.567971 430.545455 395.462516 440.785455 395.462516 453.818182S380.521425 477.090909 362.275607 477.090909H195.922153zM485.853789-81.454545H178.421062a109.521455 109.521455 0 0 0-108.683637 109.847272V739.607273A109.521455 109.521455 0 0 0 178.421062 849.454545h527.173818a109.521455 109.521455 0 0 0 108.683636-109.847272v-222.487273a23.272727 23.272727 0 0 1 46.638546 0V739.607273A156.113455 156.113455 0 0 1 705.59488 896H178.421062A156.113455 156.113455 0 0 1 23.09888 739.607273v-711.214546A156.113455 156.113455 0 0 1 178.421062-128h307.432727a23.272727 23.272727 0 1 1 0 46.545455z"  horiz-adv-x="1024" />

    
    <glyph glyph-name="querenmima" unicode="&#58982;" d="M512 323.2c-48 0-88-40-88-88 0-41.6 28.8-76.8 67.2-84.8v-75.2c0-11.2 8-19.2 19.2-19.2h3.2c11.2 0 19.2 8 19.2 19.2v75.2c38.4 9.6 67.2 44.8 67.2 84.8 0 48-40 88-88 88z m0-134.4c-25.6 0-46.4 20.8-46.4 46.4s20.8 46.4 46.4 46.4 46.4-20.8 46.4-46.4-20.8-46.4-46.4-46.4zM780.8 448h-3.2v118.4c0 145.6-118.4 264-264 264s-264-118.4-264-264V448h-4.8C188.8 448 144 403.2 144 348.8v-313.6c0-54.4 44.8-99.2 99.2-99.2h537.6c54.4 0 99.2 44.8 99.2 99.2V348.8c0 54.4-44.8 99.2-99.2 99.2z m-484.8 118.4c0 120 97.6 216 216 216s216-97.6 216-216V448h-432v118.4zM832 35.2c0-28.8-22.4-51.2-51.2-51.2H243.2c-28.8 0-51.2 22.4-51.2 51.2V348.8c0 28.8 22.4 51.2 51.2 51.2h537.6c28.8 0 51.2-22.4 51.2-51.2v-313.6z"  horiz-adv-x="1024" />

    
    <glyph glyph-name="yonghu" unicode="&#58944;" d="M509.44-122.368c-141.312 0-277.504 59.904-372.736 164.352l-19.968 21.504 19.968 21.504c95.744 104.448 231.424 164.352 372.736 164.352 141.312 0 277.504-59.904 372.736-164.352l19.968-21.504-19.968-21.504c-95.232-104.448-231.424-164.352-372.736-164.352zM204.8 63.488c81.92-77.824 190.976-121.856 304.64-121.856 113.664 0 222.72 44.032 304.64 121.856-81.92 77.824-190.976 121.856-304.64 121.856-113.664 0-222.72-44.032-304.64-121.856zM509.952 295.424c-89.088 0-161.792 72.704-161.792 161.792 0 89.088 72.704 161.792 161.792 161.792s161.792-72.704 161.792-161.792c0-89.088-72.192-161.792-161.792-161.792z m0 259.584c-53.76 0-97.792-44.032-97.792-97.792s44.032-97.792 97.792-97.792 97.792 44.032 97.792 97.792-43.52 97.792-97.792 97.792zM119.296 176.64c-33.792 63.488-51.2 134.144-51.2 206.848 0 243.712 198.144 441.344 441.344 441.344s441.344-198.144 441.344-441.344c0-72.192-17.92-143.36-51.2-206.336 16.384-15.36 31.744-31.744 46.08-49.152 45.568 77.312 69.12 165.376 69.12 255.488 0 279.04-226.816 505.856-505.856 505.856C230.4 888.832 4.096 662.016 4.096 383.488c0-90.112 24.064-178.688 69.632-255.488 13.824 16.896 29.184 33.28 45.568 48.64z"  horiz-adv-x="1024" />

    
    <glyph glyph-name="chuyidong" unicode="&#58880;" d="M512 481.08344739L156.18756351 836.97598447a68.64728811 68.64728811 0 1 1-97.08344536-97.08344739L414.83645201 384l-355.8925391-355.81243649a68.64728811 68.64728811 0 1 1 97.08344736-97.08344536L512 286.83645201l355.81243649-355.8925391a68.64728811 68.64728811 0 1 1 97.08344536 97.08344736L609.16354799 384l355.8925391 355.81243649a68.64728811 68.64728811 0 1 1-97.08344736 97.08344536L512 481.16354799z"  horiz-adv-x="1024" />

    
    <glyph glyph-name="jiahao" unicode="&#58936;" d="M510.21824 896C228.90496 896 0 666.89024 0 385.42336 0 103.936 228.90496-125.0816 510.21824-125.0816c281.30304 0 510.1568 229.0176 510.1568 510.50496C1020.37504 666.89024 791.52128 896 510.21824 896z m192.39936-545.61792H546.48832v-157.5936c0-14.7456-21.01248-26.90048-35.86048-26.90048-14.848 0-35.82976 12.15488-35.82976 26.90048v157.5936h-157.0816c-14.7968 0-26.86976 21.03296-26.86976 35.87072 0 14.83776 12.06272 35.91168 26.86976 35.91168h157.0816V577.98656c0 14.92992 20.98176 26.95168 35.82976 26.95168 14.848 0 35.86048-12.02176 35.86048-26.95168v-155.83232h156.12928c14.98112 0 26.92096-21.07392 26.92096-35.91168 0-14.82752-12.02176-35.86048-26.92096-35.86048z"  horiz-adv-x="1024" />

    
    <glyph glyph-name="cz-qkjc" unicode="&#59402;" d="M950.1-8.100000000000023l-96.2 96.2c47.5 68.8 40.7 163.9-20.6 225.1-34.5 34.5-79.7 51.7-124.9 51.7s-90.4-17.2-124.9-51.7c-69-69-69-180.8 0-249.8 34.5-34.5 79.7-51.7 124.9-51.7 35.1 0 70.2 10.4 100.2 31.2l96.2-96.2c6.2-6.2 14.4-9.4 22.6-9.4 8.2 0 16.4 3.1 22.6 9.4 12.6 12.5 12.6 32.7 0.1 45.2z m-241.7 83.8c-30.1 0-58.4 11.7-79.7 33-21.3 21.3-33 49.6-33 79.7s11.7 58.4 33 79.7c21.3 21.3 49.6 33 79.7 33s58.4-11.7 79.7-33c21.3-21.3 33-49.6 33-79.7s-11.7-58.4-33-79.7c-21.3-21.3-49.6-33-79.7-33zM517 18l-69.7 38.1-30.6 16.7-30.7-16.6-86.9-47.3-86.7 47.3-30.6 16.7-30.6-16.7-22.6-12.3V736c0 17.7 14.3 32 32 32h511.6c17.7 0 32-14.3 32-32v-283c0-17.7 14.3-32 32-32s32 14.3 32 32V768c0 35.3-26.2 64-58.6 64H123.1c-32.4 0-58.6-28.7-58.6-64v-832l117.2 64L299-64l117.5 64 69.7-38.1c21.3-11.7 47.3 3.8 47.3 28.1 0.1 11.7-6.3 22.4-16.5 28zM608.1 608c0 17.7-14.3 32-32 32H256.4c-17.7 0-32-14.3-32-32s14.3-32 32-32h319.8c17.6 0 31.9 14.3 31.9 32zM544.1 448c0 17.7-14.3 32-32 32H256.4c-17.7 0-32-14.3-32-32s14.3-32 32-32h255.8c17.6 0 31.9 14.3 31.9 32zM256.4 320c-17.7 0-32-14.3-32-32s14.3-32 32-32h191.8c17.7 0 32 14.3 32 32s-14.3 32-32 32H256.4z"  horiz-adv-x="1024" />

    
    <glyph glyph-name="zhenggaicuoshi" unicode="&#58977;" d="M755.924195 319.996628a288.634929 288.634929 0 0 1 268.155005 287.354933 275.194979 275.194979 0 0 1-10.87996 78.719708 32.639879 32.639879 0 0 1-39.679853 22.399917 31.999881 31.999881 0 0 1-13.43895-8.319969l-55.039796-55.679794a95.358646 95.358646 0 0 0-127.996525 0 92.798656 92.798656 0 0 0 0 127.997525l55.038796 59.51978a31.999881 31.999881 0 0 1 0 45.438831 28.799893 28.799893 0 0 1-15.99994 5.759979 292.474915 292.474915 0 0 1-78.718708 12.799952 286.714936 286.714936 0 0 1-289.274927-288.635929 229.11615 229.11615 0 0 1 4.479984-46.078829l-37.75986-34.559872-183.676319 183.037321a96.638641 96.638641 0 0 1-18.559931 109.438594l-63.998762 63.998763a30.719886 30.719886 0 0 1-44.799834 0l-94.077651-87.679675a30.719886 30.719886 0 0 1 0-44.798834l67.199751-63.998762a94.078651 94.078651 0 0 1 109.437594-18.559931l181.116327-184.316316L57.055788 199.679074A191.996288 191.996288 0 0 1 0.097 64.001577a191.996288 191.996288 0 0 1 56.319791-135.037498 191.996288 191.996288 0 0 1 272.634988 0L547.287969 167.040195l255.99505-255.99605a127.997525 127.997525 0 0 1 92.798656-39.039855 127.997525 127.997525 0 0 1 90.238665 218.23719zM167.774377 728.310112a32.639879 32.639879 0 0 0-45.439831 0l-44.158836 44.799834 44.799834 44.798834 44.798833-44.159836a31.999881 31.999881 0 0 0 0-45.439832z m115.197573-755.187197a127.997525 127.997525 0 0 0-181.116328 0 127.997525 127.997525 0 0 0 0 179.837332L508.248114 526.71386h3.839986a30.079888 30.079888 0 0 1 0 8.31997 42.239843 42.239843 0 0 1 0 9.599964 8.319969 8.319969 0 0 1 0 3.839986 197.756266 197.756266 0 0 0 0 59.517779A224.636166 224.636166 0 0 0 739.924254 831.988728l-10.239962-10.239962a157.437416 157.437416 0 0 1 0-221.435179 156.797418 156.797418 0 0 1 220.796181 0l9.599964 10.87996a223.356171 223.356171 0 0 0-273.914983-218.23719h-17.279936s-3.199988 0-5.119981-3.839986z m658.548556-18.559931a63.999763 63.999763 0 0 0-90.237665 0L602.966762 202.879062l90.238666 90.238665L941.520506 44.801649a63.999763 63.999763 0 0 0 18.559931-44.799834 63.999763 63.999763 0 0 0-18.559931-45.438831zM192.093287 128.00134a63.999763 63.999763 0 1 1 0-127.997525 63.999763 63.999763 0 0 1 0 127.997525z m0 0"  horiz-adv-x="1024" />

    


  </font>
</defs>
</svg>
